<svg id="Layer_1" data-name="Layer 1" xmlns="http://www.w3.org/2000/svg" xmlns:xlink="http://www.w3.org/1999/xlink" width="1920" height="1080" viewBox="0 0 1920 1080"><defs><style>.cls-1,.cls-4,.cls-5{fill:none;}.cls-2{clip-path:url(#clip-path);}.cls-3{opacity:0.73;}.cls-4,.cls-5{stroke:#fff;stroke-miterlimit:10;stroke-width:4px;}.cls-4{opacity:0.49;}.cls-5{opacity:0.62;}.cls-6{fill:#fff;}</style><clipPath id="clip-path"><rect class="cls-1" width="1920" height="1080"/></clipPath></defs><title>baggrund</title><g class="cls-2"><image width="2500" height="1668" transform="translate(1 -162) scale(0.7673)" xlink:href="../background3.jpg"/></g><g class="cls-3"><circle class="cls-4" cx="388.1742" cy="284.0164" r="261.0656"/><ellipse class="cls-5" cx="388.1742" cy="284.0164" rx="167.476" ry="170.2908"/></g><path class="cls-6" d="M429.0557,415.0068a.5009.5009,0,0,1-.4331-.25c-.6675-1.1572-1.5577-4.3252-2.9766-10.5937-1.2485-5.81-3.42-7.9326-8.2988-8.1182H412.543v18.4619a.5.5,0,0,1-.5.5h-5.65a.5.5,0,0,1-.5-.5V371.3232a.5007.5007,0,0,1,.4-.49,59.2208,59.2208,0,0,1,10.9458-.9209c6.1582,0,10.1675,1.1416,12.999,3.7022a11.3277,11.3277,0,0,1,3.606,8.6826A11.8547,11.8547,0,0,1,426.21,393.582c2.8652,1.3828,4.768,4.2744,5.8022,8.8008,1.3359,5.7139,2.43,10.2188,3.3291,11.8867a.5.5,0,0,1-.44.7373Zm-11.2339-24.248c5.6924,0,9.3706-3.0664,9.3706-7.8125,0-6.2637-5.2031-7.6348-9.5689-7.6817a25.5079,25.5079,0,0,0-5.08.41v15.084Z"/><path class="cls-6" d="M417.2381,370.4125c6.0386,0,9.9349,1.1047,12.664,3.5724a10.9061,10.9061,0,0,1,3.441,8.3122c0,5.7788-3.6366,9.611-8.2481,11.17v.1956c3.3768,1.1674,5.3907,4.2844,6.43,8.8318,1.427,6.1026,2.466,10.3245,3.3768,12.0129h-5.8461c-.712-1.2346-1.6868-5-2.9215-10.4544-1.2988-6.04-3.6366-8.3122-8.7676-8.5079H412.043V414.507h-5.6505V371.3232a58.78,58.78,0,0,1,10.8456-.9107m-5.1951,20.8463h5.7788c6.0385,0,9.8707-3.3111,9.8707-8.3123,0-5.6489-4.0919-8.1182-10.0663-8.1823a23.225,23.225,0,0,0-5.5832.5195v15.9751m5.1951-21.8463a59.6645,59.6645,0,0,0-11.0463.931,1,1,0,0,0-.7993.98V414.507a1,1,0,0,0,1,1h5.6505a1,1,0,0,0,1-1V396.5447h4.3234c4.6118.1766,6.5872,2.1243,7.79,7.7181,1.452,6.4154,2.33,9.525,3.0329,10.7438a1,1,0,0,0,.8663.5h5.8461a1,1,0,0,0,.88-1.4748c-.87-1.6122-1.9549-6.0855-3.2832-11.7658-.9462-4.1412-2.6869-7.0364-5.1865-8.6359a12.2585,12.2585,0,0,0,7.0311-11.3334,11.8251,11.8251,0,0,0-3.7791-9.0617c-2.9211-2.6415-7.0337-3.8229-13.3259-3.8229Zm-4.1951,6.6734a27.871,27.871,0,0,1,4.5832-.3217c4.13.0444,9.0663,1.3266,9.0663,7.1823,0,4.51-3.399,7.3123-8.8707,7.3123H413.043V376.0859Z"/><path class="cls-6" d="M454.563,415.6562c-9.6934,0-15.957-6.416-15.957-16.3447,0-10.2744,6.2675-17.45,15.2417-17.45,6.2221,0,13.4882,4.0088,13.4882,15.3057a19.8737,19.8737,0,0,1-.1718,2.4922l-.0274.2295a.5.5,0,0,1-.4966.4424H445.08c.2954,6.2168,4.1006,9.9091,10.2622,9.9091a19.97,19.97,0,0,0,8.5044-1.584.5064.5064,0,0,1,.1958-.04.4934.4934,0,0,1,.2251.0537.5.5,0,0,1,.2612.33l.9751,4.0918a.5.5,0,0,1-.2808.5723A25.8525,25.8525,0,0,1,454.563,415.6562Zm6.251-20.416a9.7116,9.7116,0,0,0-2.3311-6.3613,6.8408,6.8408,0,0,0-5.0874-1.9258c-5.4131,0-7.646,4.9688-8.1929,8.2871Z"/><path class="cls-6" d="M453.8478,382.3613c10.2621,0,12.9879,9.0274,12.9879,14.8061a21.0614,21.0614,0,0,1-.1956,2.6633H444.5639c.1283,7.727,5.0637,10.91,10.7783,10.91a20.6254,20.6254,0,0,0,8.7-1.6242l.9749,4.092a25.46,25.46,0,0,1-10.4544,1.9481c-9.6752,0-15.4572-6.364-15.4572-15.8452s5.5864-16.95,14.742-16.95m-9.22,13.3791h16.6886c.0641-3.6366-1.4944-9.2872-7.921-9.2872-5.7821,0-8.3123,5.3251-8.7676,9.2872m9.22-14.3791c-9.2686,0-15.742,7.3813-15.742,17.95,0,10.2331,6.46,16.8452,16.4572,16.8452a26.3368,26.3368,0,0,0,10.8658-2.0367,1,1,0,0,0,.5614-1.1432l-.9749-4.092a1,1,0,0,0-1.3641-.6885,19.5112,19.5112,0,0,1-8.309,1.5445c-2.7773,0-9.1075-.8931-9.7312-8.91H466.64a1,1,0,0,0,.9934-.8857l.0267-.2257a20.5023,20.5023,0,0,0,.1755-2.5519,19.16,19.16,0,0,0-2.8108-10.12c-2.4523-3.72-6.3173-5.6856-11.1771-5.6856ZM445.8065,394.74c.67-3.1184,2.8139-7.2872,7.5892-7.2872a6.3565,6.3565,0,0,1,4.73,1.7766,8.8583,8.8583,0,0,1,2.1625,5.5106Z"/><path class="cls-6" d="M480.5259,415.6562a18.4481,18.4481,0,0,1-9.0855-2.2128.5007.5007,0,0,1-.2212-.587l1.4268-4.3505a.5007.5007,0,0,1,.31-.3155.5094.5094,0,0,1,.1655-.0283.4951.4951,0,0,1,.2739.082,14.4692,14.4692,0,0,0,7.2593,2.19c3.51,0,5.606-1.5616,5.606-4.1758,0-2.4463-1.3926-3.7861-5.52-5.31-7.14-2.5469-8.6391-6.499-8.6391-9.3652,0-5.7246,4.6655-9.7227,11.3457-9.7227a16.335,16.335,0,0,1,7.9834,2.02.5009.5009,0,0,1,.2177.5937l-1.43,4.1553a.5.5,0,0,1-.3067.3086.5147.5147,0,0,1-.166.0283.5035.5035,0,0,1-.2671-.0772,11.6453,11.6453,0,0,0-6.1626-1.7412c-2.8467,0-4.7593,1.5215-4.7593,3.7852,0,2.0976,1.2676,3.1875,5.6524,4.8594,6.0073,2.2881,8.57,5.2627,8.57,9.9463C492.7793,411.7637,487.97,415.6562,480.5259,415.6562Z"/><path class="cls-6" d="M483.4473,382.3613a15.6954,15.6954,0,0,1,7.7286,1.95l-1.43,4.1562a12.2308,12.2308,0,0,0-6.43-1.8183c-3.3737,0-5.2593,1.9466-5.2593,4.2844,0,2.5975,1.8856,3.7681,5.9744,5.3266,5.4549,2.0781,8.2481,4.8039,8.2481,9.4795,0,5.5207-4.2876,9.417-11.7532,9.417a17.9131,17.9131,0,0,1-8.8318-2.1438l1.4271-4.35a14.9733,14.9733,0,0,0,7.5329,2.2721c4.1561,0,6.1059-2.0781,6.1059-4.6757,0-2.7258-1.6227-4.22-5.8461-5.7787-5.6473-2.014-8.3122-5.1311-8.3122-8.8959,0-5.0669,4.092-9.223,10.8456-9.223m0-1c-6.8638,0-11.8456,4.2993-11.8456,10.223,0,3.0276,1.5573,7.192,8.9763,9.8378,4.3546,1.607,5.182,2.94,5.182,4.8368,0,2.3016-1.9087,3.6757-5.1059,3.6757a13.9286,13.9286,0,0,1-6.9858-2.1092,1,1,0,0,0-1.4973.5254l-1.4271,4.35a1,1,0,0,0,.4429,1.1735,18.96,18.96,0,0,0,9.3391,2.282c7.7472,0,12.7532-4.0889,12.7532-10.417,0-4.8595-2.7425-8.0712-8.8921-10.414-4.1846-1.5951-5.33-2.5391-5.33-4.3921,0-1.9645,1.7116-3.2844,4.2593-3.2844a11.3106,11.3106,0,0,1,5.8961,1.6639,1,1,0,0,0,1.4792-.52l1.43-4.1561a1,1,0,0,0-.436-1.1858,16.8543,16.8543,0,0,0-8.2382-2.0893Z"/><path class="cls-6" d="M509.2852,415.6562a8.3741,8.3741,0,0,1-6.5464-2.5742c-1.5865-1.6484-2.333-4.3584-2.333-8.51V387.9277h-4.3716a.5.5,0,0,1-.5-.5v-4.3515a.5.5,0,0,1,.5-.5h4.3716v-7.0323a.5.5,0,0,1,.3706-.4834l5.5864-1.4951a.5365.5365,0,0,1,.1294-.0166.5006.5006,0,0,1,.5.5v8.5274h7.6807a.5.5,0,0,1,.5.5v4.3515a.5.5,0,0,1-.5.5h-7.6807V404.377c0,3.9277,1.1318,5.6035,3.7842,5.6035a12.0856,12.0856,0,0,0,3.18-.3721.5092.5092,0,0,1,.1324-.0176.5008.5008,0,0,1,.499.47l.26,4.2862a.4991.4991,0,0,1-.3086.4922A14.5008,14.5008,0,0,1,509.2852,415.6562Z"/><path class="cls-6" d="M506.4919,374.0491v9.0273h8.1808v4.3518h-8.1808v16.9483c0,3.8964,1.1032,6.1043,4.2845,6.1043a12.686,12.686,0,0,0,3.3127-.39l.26,4.2859a13.999,13.999,0,0,1-5.0636.7793,7.917,7.917,0,0,1-6.17-2.4035c-1.6227-1.6869-2.2095-4.48-2.2095-8.1808V387.4282h-4.8713v-4.3518h4.8713v-7.5329l5.5863-1.4944m0-1a.9953.9953,0,0,0-.2584.034l-5.5863,1.4944a1,1,0,0,0-.7416.966v6.5329h-3.8713a1,1,0,0,0-1,1v4.3518a1,1,0,0,0,1,1h3.8713v16.1439c0,4.2891.7908,7.1089,2.4888,8.8741a8.8356,8.8356,0,0,0,6.8908,2.71,15.0093,15.0093,0,0,0,5.444-.8545,1,1,0,0,0,.6178-.9852l-.26-4.286a1,1,0,0,0-1.262-.9041,11.6433,11.6433,0,0,1-3.0488.3542c-1.9715,0-3.2845-.868-3.2845-5.1043V388.4282h7.1808a1,1,0,0,0,1-1v-4.3518a1,1,0,0,0-1-1h-7.1808v-8.0273a1,1,0,0,0-1-1Z"/><path class="cls-6" d="M528.2378,415.7217c-6.6377,0-10.1108-4.793-10.1108-9.5274,0-7.8125,6.7089-12.1367,18.8979-12.1884v-.1495c0-4.4941-2.2358-6.7734-6.645-6.7734a15.1388,15.1388,0,0,0-7.9126,2.2578.5.5,0,0,1-.7442-.2568l-1.2954-3.7666a.5.5,0,0,1,.2-.582,19.9121,19.9121,0,0,1,10.5957-2.8741c10.2891,0,12.4488,7.2647,12.4488,13.3594v11.7529a43.56,43.56,0,0,0,.5117,7.4444.5.5,0,0,1-.4922.5888h-5.1953a.4994.4994,0,0,1-.4966-.4433l-.3389-2.9658A12.352,12.352,0,0,1,528.2378,415.7217Zm8.5059-16.7656c-7.898,0-11.9024,2.2177-11.9024,6.59a4.5737,4.5737,0,0,0,4.8911,4.9541,7.3548,7.3548,0,0,0,7.1236-4.9229,5.395,5.395,0,0,0,.2973-1.6562V398.958C537.0171,398.957,536.88,398.9561,536.7437,398.9561Z"/><path class="cls-6" d="M531.2234,382.3613c9.611,0,11.9488,6.56,11.9488,12.86v11.7532a44.4047,44.4047,0,0,0,.52,7.5329h-5.1952l-.4522-3.9605h-.1956a11.7133,11.7133,0,0,1-9.611,4.6757c-6.3657,0-9.611-4.4817-9.611-9.0274,0-7.5391,6.6519-11.69,18.6219-11.69.0921,0,.1836,0,.2762.0007v-.6494c0-2.5975-.7151-7.2732-7.1449-7.2732a15.6725,15.6725,0,0,0-8.184,2.3379L520.9,385.1545a19.5,19.5,0,0,1,10.3229-2.7932M529.7322,411a7.8224,7.8224,0,0,0,7.5971-5.2609,5.9306,5.9306,0,0,0,.3239-1.8183v-5.4549c-.3021-.0062-.6068-.01-.912-.01-5.9922,0-12.4,1.28-12.4,7.0887A5.0562,5.0562,0,0,0,529.7322,411m1.4912-29.639a20.42,20.42,0,0,0-10.8679,2.9547,1,1,0,0,0-.4007,1.1637l1.2956,3.7665a1,1,0,0,0,1.4886.5145,14.6184,14.6184,0,0,1,7.641-2.1776c4.02,0,6.0319,1.94,6.14,5.927-12.1924.1707-18.8935,4.66-18.8935,12.6847a9.9481,9.9481,0,0,0,2.694,6.9077,10.5994,10.5994,0,0,0,7.917,3.12,13.0254,13.0254,0,0,0,9.0485-3.5006l.2168,1.8988a1,1,0,0,0,.9935.8866h5.1952a1,1,0,0,0,.984-1.1782,43.147,43.147,0,0,1-.5036-7.3547V395.2209c0-8.9375-4.5986-13.86-12.9488-13.86ZM529.7322,410c-2.7494,0-4.3908-1.6654-4.3908-4.4549,0-4.0244,3.8061-6.0727,11.3118-6.0886v4.4643a4.9059,4.9059,0,0,1-.2721,1.5A6.86,6.86,0,0,1,529.7322,410Z"/><path class="cls-6" d="M563.0322,415.7217c-3.4111,0-11.3452-1.3906-11.3452-14.2666V383.0762a.5.5,0,0,1,.5-.5h5.7144a.5.5,0,0,1,.5.5v17.4043c0,6.3925,2.1318,9.5,6.5166,9.5a7.5367,7.5367,0,0,0,7.5493-7.6182V383.0762a.5.5,0,0,1,.5-.5h5.7148a.5.5,0,0,1,.5.5v22.8584c0,3.57.083,6.2822.2613,8.5332a.5009.5009,0,0,1-.4986.539h-5.0669a.5.5,0,0,1-.499-.4687l-.2417-3.8311A12.2066,12.2066,0,0,1,563.0322,415.7217Z"/><path class="cls-6" d="M578.682,383.0764v22.8587c0,3.2469.0673,6.1043.2629,8.5719h-5.0668l-.3239-5.131h-.1315a11.8238,11.8238,0,0,1-10.39,5.8462c-4.9354,0-10.8456-2.7291-10.8456-13.7672V383.0764h5.7146V400.48c0,5.9744,1.8216,10.0006,7.0167,10.0006a8.0393,8.0393,0,0,0,8.0492-8.1182V383.0764h5.7147m0-1h-5.7147a1,1,0,0,0-1,1v19.2862a7.039,7.039,0,0,1-7.0492,7.1182c-2.5829,0-6.0167-.9331-6.0167-9.0006V383.0764a1,1,0,0,0-1-1h-5.7146a1,1,0,0,0-1,1V401.455c0,13.3283,8.284,14.7672,11.8456,14.7672a12.6436,12.6436,0,0,0,9.6859-4.2152l.1618,2.563a1,1,0,0,0,.998.937h5.0668a1,1,0,0,0,.9969-1.079c-.1772-2.236-.26-4.9347-.26-8.4929V383.0764a1,1,0,0,0-1-1Z"/><path class="cls-6" d="M588.1489,415.0068a.5.5,0,0,1-.5-.5v-21.624c0-4.083-.08-7.0976-.2588-9.7734a.5.5,0,0,1,.4991-.5332h5a.4993.4993,0,0,1,.5.4843l.1411,4.4444a9.6287,9.6287,0,0,1,8.5181-5.6436,6.7222,6.7222,0,0,1,1.7436.21.5.5,0,0,1,.3789.4853v5.3907a.4994.4994,0,0,1-.5.5.5125.5125,0,0,1-.1094-.0118,7.9989,7.9989,0,0,0-1.84-.1835c-3.59,0-6.4038,2.7187-7.1694,6.9277a15.4358,15.4358,0,0,0-.2515,2.5732v16.7539a.5.5,0,0,1-.5.5Z"/><path class="cls-6" d="M602.0473,382.3613a6.181,6.181,0,0,1,1.6227.1956v5.3908a8.4794,8.4794,0,0,0-1.95-.1957c-4.0246,0-6.8819,3.053-7.6612,7.3374a15.9311,15.9311,0,0,0-.26,2.6633V414.507h-5.6506V392.8831c0-3.7024-.0641-6.8852-.26-9.8067h5l.1956,6.17h.26c1.43-4.2219,4.8712-6.8852,8.7034-6.8852m0-1a9.8512,9.8512,0,0,0-8.0726,4.4168l-.0867-2.7334a1,1,0,0,0-1-.9683h-5a1,1,0,0,0-.9978,1.0668c.1781,2.6594.2575,5.6633.2575,9.74V414.507a1,1,0,0,0,1,1h5.6506a1,1,0,0,0,1-1V397.7527a14.9566,14.9566,0,0,1,.2457-2.497c.7289-4.0068,3.2875-6.5037,6.6752-6.5037a7.52,7.52,0,0,1,1.73.1712,1,1,0,0,0,1.22-.9755v-5.3908a1,1,0,0,0-.7575-.97,7.1958,7.1958,0,0,0-1.8652-.2254Z"/><path class="cls-6" d="M616.1963,415.7217c-6.6382,0-10.1113-4.793-10.1113-9.5274,0-7.8125,6.7089-12.1367,18.8984-12.1884v-.1495c0-4.4941-2.2358-6.7734-6.645-6.7734a15.1361,15.1361,0,0,0-7.9126,2.2578.5014.5014,0,0,1-.2715.08.492.492,0,0,1-.1631-.0273.5022.5022,0,0,1-.31-.31l-1.2954-3.7666a.5.5,0,0,1,.2-.582,19.91,19.91,0,0,1,10.5952-2.8741c10.2891,0,12.4488,7.2647,12.4488,13.3594v11.7529a43.5987,43.5987,0,0,0,.5117,7.4444.5.5,0,0,1-.4922.5888h-5.1948a.4994.4994,0,0,1-.4966-.4433l-.3389-2.9658A12.357,12.357,0,0,1,616.1963,415.7217Zm8.5054-16.7656c-7.8975,0-11.9019,2.2177-11.9019,6.59A4.5736,4.5736,0,0,0,617.69,410.5a7.355,7.355,0,0,0,7.1241-4.9229,5.3987,5.3987,0,0,0,.2968-1.6562V398.958C624.9751,398.957,624.8384,398.9561,624.7017,398.9561Z"/><path class="cls-6" d="M619.1816,382.3613c9.6111,0,11.9489,6.56,11.9489,12.86v11.7532a44.4158,44.4158,0,0,0,.5195,7.5329h-5.1951l-.4522-3.9605h-.1956a11.7135,11.7135,0,0,1-9.6111,4.6757c-6.3656,0-9.611-4.4817-9.611-9.0274,0-7.5391,6.6519-11.69,18.622-11.69.0921,0,.1836,0,.2762.0007v-.6494c0-2.5975-.7151-7.2732-7.1449-7.2732a15.6719,15.6719,0,0,0-8.184,2.3379l-1.2956-3.7665a19.5,19.5,0,0,1,10.3229-2.7932M617.6905,411a7.8225,7.8225,0,0,0,7.5971-5.2609,5.9306,5.9306,0,0,0,.3239-1.8183v-5.4549c-.3022-.0062-.6069-.01-.912-.01-5.9922,0-12.4,1.28-12.4,7.0887A5.0561,5.0561,0,0,0,617.6905,411m1.4911-29.639a20.4207,20.4207,0,0,0-10.8679,2.9547,1,1,0,0,0-.4006,1.1637l1.2956,3.7665a1,1,0,0,0,1.4886.5145,14.6182,14.6182,0,0,1,7.641-2.1776c4.02,0,6.0319,1.94,6.14,5.927-12.1925.1707-18.8936,4.66-18.8936,12.6847a9.9477,9.9477,0,0,0,2.6941,6.9077,10.5992,10.5992,0,0,0,7.9169,3.12,13.0254,13.0254,0,0,0,9.0485-3.5006l.2169,1.8989a1,1,0,0,0,.9935.8865H631.65a1,1,0,0,0,.984-1.1782,43.1486,43.1486,0,0,1-.5035-7.3547V395.2209c0-8.9375-4.5986-13.86-12.9489-13.86ZM617.6905,410c-2.7494,0-4.3908-1.6654-4.3908-4.4549,0-4.0244,3.806-6.0727,11.3118-6.0886v4.4643a4.9069,4.9069,0,0,1-.2721,1.5A6.86,6.86,0,0,1,617.6905,410Z"/><path class="cls-6" d="M661.3809,415.0068a.5.5,0,0,1-.5-.5V396.3877c0-4.0078-1.1748-8.7852-6.7735-8.7852a7.6561,7.6561,0,0,0-7.1826,5.4913,7.7569,7.7569,0,0,0-.3691,2.5156v18.8974a.5.5,0,0,1-.5.5h-5.7149a.5.5,0,0,1-.5-.5V391.584c0-3.5283-.0771-6.0615-.2583-8.4707a.5.5,0,0,1,.4986-.5371h5.0664a.5.5,0,0,1,.499.4687l.2383,3.8135a12.1274,12.1274,0,0,1,10.1084-4.9971c1.9375,0,11.6025.669,11.6025,13.8789v18.7666a.5.5,0,0,1-.5.5Z"/><path class="cls-6" d="M655.9934,382.3613c4.3486,0,11.1022,2.5976,11.1022,13.3791V414.507H661.381V396.3882c0-5.0637-1.8825-9.2855-7.2732-9.2855a8.1174,8.1174,0,0,0-7.6613,5.8445,8.2179,8.2179,0,0,0-.3912,2.6617V414.507h-5.7147V391.5843c0-3.2486-.0641-5.91-.26-8.5079h5.0669l.3239,5.1951h.1314a11.5588,11.5588,0,0,1,10.39-5.91m0-1a12.7343,12.7343,0,0,0-9.69,4.1713l-.1571-2.5184a1,1,0,0,0-.998-.9378h-5.0669a1,1,0,0,0-.9972,1.0751c.18,2.3915.2569,4.9135.2569,8.4328V414.507a1,1,0,0,0,1,1h5.7147a1,1,0,0,0,1-1V395.6089a7.2289,7.2289,0,0,1,.3311-2.32q.0089-.0245.0165-.0493a7.1788,7.1788,0,0,1,6.7049-5.1366c5.1849,0,6.2732,4.5056,6.2732,8.2855V414.507a1,1,0,0,0,1,1h5.7146a1,1,0,0,0,1-1V395.74c0-5.0907-1.431-8.9524-4.2536-11.4779a11.8022,11.8022,0,0,0-7.8486-2.9012Z"/><path class="cls-6" d="M685.7852,415.6562a8.37,8.37,0,0,1-6.5459-2.5742c-1.587-1.6484-2.334-4.3574-2.334-8.51V387.9277h-4.3711a.5.5,0,0,1-.5-.5v-4.3515a.5.5,0,0,1,.5-.5h4.3711v-7.0323a.5006.5006,0,0,1,.3711-.4834l5.5869-1.4951a.5262.5262,0,0,1,.1289-.0166.5.5,0,0,1,.5.5v8.5274h7.6807a.5.5,0,0,1,.5.5v4.3515a.5.5,0,0,1-.5.5h-7.6807V404.377c0,3.9277,1.1318,5.6035,3.7842,5.6035a12.0762,12.0762,0,0,0,3.18-.3721.5173.5173,0,0,1,.1328-.0176.5008.5008,0,0,1,.499.47l.26,4.2862a.5.5,0,0,1-.3086.4922A14.4955,14.4955,0,0,1,685.7852,415.6562Z"/><path class="cls-6" d="M682.9921,374.0491v9.0273h8.1808v4.3518h-8.1808v16.9483c0,3.8964,1.1032,6.1043,4.2845,6.1043a12.6851,12.6851,0,0,0,3.3126-.39l.26,4.2859a14,14,0,0,1-5.0637.7793,7.9169,7.9169,0,0,1-6.17-2.4035c-1.6227-1.6869-2.21-4.48-2.21-8.1808V387.4282h-4.8713v-4.3518h4.8713v-7.5329l5.5863-1.4944m0-1a.9953.9953,0,0,0-.2584.034l-5.5864,1.4944a1,1,0,0,0-.7415.966v6.5329h-3.8713a1,1,0,0,0-1,1v4.3518a1,1,0,0,0,1,1h3.8713v16.1439c0,4.2891.7908,7.1089,2.4888,8.8741a8.8355,8.8355,0,0,0,6.8907,2.71,15.01,15.01,0,0,0,5.4441-.8545,1,1,0,0,0,.6178-.9852l-.26-4.286a1,1,0,0,0-1.262-.9041,11.6439,11.6439,0,0,1-3.0488.3542c-1.9715,0-3.2845-.868-3.2845-5.1043V388.4282h7.1808a1,1,0,0,0,1-1v-4.3518a1,1,0,0,0-1-1h-7.1808v-8.0273a1,1,0,0,0-1-1Z"/><path class="cls-6" d="M139.7845,215.5234a46.06,46.06,0,0,1,2.1469,5.6963,22.8441,22.8441,0,0,1,.9755,6.752,33.5714,33.5714,0,0,1-11.4164,25.8476,35.0752,35.0752,0,0,1-12.0016,6.8575,43.9147,43.9147,0,0,1-14.2452,2.3212,28.7721,28.7721,0,0,1-10.5384-1.8994,24.4615,24.4615,0,0,1-8.4891-5.4853,25.4753,25.4753,0,0,1-5.6585-8.6514,30.13,30.13,0,0,1-2.0494-11.3935,37.2744,37.2744,0,0,1,6.83-22.3663,59.467,59.467,0,0,1,18.1487-16.247,110.6992,110.6992,0,0,1,25.76-10.9717,240.9737,240.9737,0,0,1,29.6617-6.6465,299.4492,299.4492,0,0,1,29.9553-3.2705q14.732-.8407,26.4428-.8447a162.3812,162.3812,0,0,0,20.9784-1.0547,94.2521,94.2521,0,0,1,11.8057-1.0547,9.5841,9.5841,0,0,1,4.0011.8438,2.7128,2.7128,0,0,1,1.8534,2.5322,2.68,2.68,0,0,1-2.0485,2.6377,12.8133,12.8133,0,0,1-4.3913.7383c-.39,0-1.204-.0332-2.4395-.1055q-1.8561-.1039-4.39-.3164-2.5389-.208-5.0742-.4219-2.5376-.208-4.2929-.4228a83.08,83.08,0,0,0-21.076,13.1875A108.8647,108.8647,0,0,0,194.621,208.666a149.2728,149.2728,0,0,0-12.1968,19.3057q-5.369,10.1279-10.636,20.6787-5.2687,10.5526-11.0252,21.1a157.5641,157.5641,0,0,1-13.3682,20.4668,116.21,116.21,0,0,1-28.7838,26.9023,64.4034,64.4034,0,0,1-35.81,10.4454,67.3611,67.3611,0,0,1-12.3918-1.2666,44.8937,44.8937,0,0,1-12.5869-4.3252,28.6932,28.6932,0,0,1-9.7572-8.2295q-3.9018-5.1666-3.9027-12.9756a18.4868,18.4868,0,0,1,3.1223-10.5508,10.1711,10.1711,0,0,1,8.9769-4.6416,9.5482,9.5482,0,0,1,7.22,2.8486,10.377,10.377,0,0,1,2.7321,7.49q0,4.2231-1.7567,6.4355-1.7558,2.2149-6.2446,3.27,0,10.128,5.6594,14.7695,5.6576,4.6451,15.4166,4.6426a41.6238,41.6238,0,0,0,23.9057-7.0683,79.6165,79.6165,0,0,0,19.0266-18.5684,199.81,199.81,0,0,0,16.2954-26.0586q7.7061-14.559,15.5142-29.54A232.2133,232.2133,0,0,1,166.0322,223.33a102.7172,102.7172,0,0,1,33.9555-32.1778,169.7068,169.7068,0,0,1,27.8084-12.9765v-.4219q-8.7818,0-22.0514.5273-13.2743.53-28.0044,2.4268A259.8634,259.8634,0,0,0,148.1761,186.3a109.2078,109.2078,0,0,0-26.6379,10.2334,59.7,59.7,0,0,0-19.2217,16.458q-7.4189,9.92-7.4161,24.2647,0,9.495,4.9765,15.0869t13.5624,5.5918a23.8659,23.8659,0,0,0,9.9532-2.2158,27.6714,27.6714,0,0,0,8.6833-6.2247,31.6787,31.6787,0,0,0,6.1471-9.4951,30.3039,30.3039,0,0,0,2.342-12.0273,25.1738,25.1738,0,0,0-.78-6.2237,39.9383,39.9383,0,0,0-1.9518-5.8027Z"/><path class="cls-6" d="M82.8013,328.0645a68.1939,68.1939,0,0,1-12.4844-1.2754A45.5925,45.5925,0,0,1,57.59,322.4155a29.3209,29.3209,0,0,1-9.9238-8.3711,21.497,21.497,0,0,1-4.0039-13.2768,19.0546,19.0546,0,0,1,3.2075-10.83,10.6846,10.6846,0,0,1,9.3916-4.8628,10.0729,10.0729,0,0,1,7.5811,3.0024,10.8994,10.8994,0,0,1,2.8711,7.8365c0,2.917-.6275,5.1865-1.8648,6.7461-1.186,1.4956-3.2485,2.6225-6.1338,3.352.0723,6.3682,1.9126,11.0737,5.4737,13.9907,3.6611,3.0054,8.7412,4.5293,15.1,4.5293a41.3212,41.3212,0,0,0,23.6255-6.9824A79.5038,79.5038,0,0,0,121.82,299.0962a200.2674,200.2674,0,0,0,16.2544-25.9932c5.2412-9.9023,10.46-19.84,15.5127-29.5371a233.7414,233.7414,0,0,1,12.0278-20.5117,103.22,103.22,0,0,1,34.1153-32.3306A168.0437,168.0437,0,0,1,226.16,178.2583c-5.4942.03-12.3438.2051-20.3955.5225-8.8047.352-18.212,1.167-27.96,2.4233a260.429,260.429,0,0,0-29.5073,5.5811A109.2038,109.2038,0,0,0,121.78,196.9707a59.48,59.48,0,0,0-19.0635,16.32c-4.855,6.4917-7.3164,14.5547-7.3164,23.9654,0,6.1762,1.6318,11.14,4.85,14.7544,3.2021,3.5991,7.64,5.4243,13.189,5.4243a23.484,23.484,0,0,0,9.7465-2.1709,27.2975,27.2975,0,0,0,8.5269-6.1138,31.314,31.314,0,0,0,6.05-9.3472,29.9379,29.9379,0,0,0,2.3022-11.831,24.8182,24.8182,0,0,0-.7646-6.1006,39.7045,39.7045,0,0,0-1.9277-5.73l-.2378-.5571,2.9355-.6343.168.3633a46.8393,46.8393,0,0,1,2.1709,5.7583,23.4549,23.4549,0,0,1,.9975,6.9A34.0707,34.0707,0,0,1,131.82,254.1953a35.7392,35.7392,0,0,1-12.1709,6.9551,44.6241,44.6241,0,0,1-14.4057,2.3476,29.4034,29.4034,0,0,1-10.72-1.9335,25.0723,25.0723,0,0,1-8.66-5.5967,26.085,26.085,0,0,1-5.77-8.8184,30.7611,30.7611,0,0,1-2.0859-11.581A37.9283,37.9283,0,0,1,84.9326,212.91a60.2345,60.2345,0,0,1,18.2979-16.3843,111.7249,111.7249,0,0,1,25.8764-11.0225,242.5276,242.5276,0,0,1,29.7232-6.66,301.2212,301.2212,0,0,1,30.0049-3.2759c9.831-.5611,18.7373-.8457,26.4716-.8457a162.8825,162.8825,0,0,0,20.9107-1.05,95.1585,95.1585,0,0,1,11.8735-1.06,10.1267,10.1267,0,0,1,4.2071.8882,3.1874,3.1874,0,0,1-.2315,6.0962,13.38,13.38,0,0,1-4.561.7676c-.4253,0-1.2793-.0367-2.4688-.1065q-1.86-.1039-4.4028-.3174l-5.0737-.4218c-1.6084-.1319-3.0118-.2691-4.1739-.4078a82.89,82.89,0,0,0-20.8242,13.05,108.8553,108.8553,0,0,0-15.54,16.8033,149.44,149.44,0,0,0-12.1563,19.2412c-3.5049,6.6108-7.0815,13.5649-10.6308,20.6684-3.4683,6.9468-7.18,14.0513-11.0333,21.1153a158.88,158.88,0,0,1-13.4106,20.5317,117.2522,117.2522,0,0,1-28.9087,27.0176A65.18,65.18,0,0,1,82.8013,328.0645Zm-26.54-41.9893a9.62,9.62,0,0,0-8.562,4.4209,18.074,18.074,0,0,0-3.0371,10.2715,20.5266,20.5266,0,0,0,3.8018,12.6743,28.33,28.33,0,0,0,9.5893,8.0874,44.5949,44.5949,0,0,0,12.4478,4.2773,67.23,67.23,0,0,0,12.3,1.2579A64.1979,64.1979,0,0,0,118.3389,316.7a116.2616,116.2616,0,0,0,28.66-26.7881A157.8959,157.8959,0,0,0,160.3242,269.51c3.8472-7.0533,7.5537-14.147,11.0166-21.0831,3.5528-7.1113,7.1333-14.0722,10.6416-20.69a150.4584,150.4584,0,0,1,12.2378-19.37,109.8512,109.8512,0,0,1,15.6826-16.958,83.985,83.985,0,0,1,21.2017-13.2681l.1269-.0566.1377.0171c1.1753.143,2.6133.2846,4.2735.42l5.0742.4218q2.5269.2124,4.377.316c1.1552.0673,2.0112.1045,2.4116.1045a12.38,12.38,0,0,0,4.2217-.7085,2.1822,2.1822,0,0,0,1.7182-2.1675,2.2352,2.2352,0,0,0-1.561-2.0772,9.1329,9.1329,0,0,0-3.7935-.7988,94.2691,94.2691,0,0,0-11.7378,1.05,163.7845,163.7845,0,0,1-21.0464,1.0591c-7.7153,0-16.6025.2842-26.4145.8437a300.5512,300.5512,0,0,0-29.9048,3.2652,241.56,241.56,0,0,0-29.6,6.6328,110.7254,110.7254,0,0,0-25.644,10.9209,59.2543,59.2543,0,0,0-17.9991,16.11,36.95,36.95,0,0,0-6.7358,22.0743,29.7749,29.7749,0,0,0,2.0127,11.206,25.1018,25.1018,0,0,0,5.5474,8.4839,24.0763,24.0763,0,0,0,8.3178,5.3745,28.414,28.414,0,0,0,10.3575,1.8652,43.6231,43.6231,0,0,0,14.0839-2.2944,34.7461,34.7461,0,0,0,11.8335-6.76,33.0692,33.0692,0,0,0,11.2456-25.4717,22.4616,22.4616,0,0,0-.9531-6.605,46.8387,46.8387,0,0,0-1.957-5.27l-.9712.21a41.1408,41.1408,0,0,1,1.7436,5.3169,25.8013,25.8013,0,0,1,.7959,6.3477,30.9383,30.9383,0,0,1-2.3823,12.2236,32.3117,32.3117,0,0,1-6.2446,9.6431,28.2874,28.2874,0,0,1-8.8384,6.3354,24.4762,24.4762,0,0,1-10.16,2.2608c-5.8472,0-10.5357-1.9375-13.9361-5.7593-3.3862-3.8027-5.103-8.9907-5.103-15.4194,0-9.6314,2.5288-17.8955,7.5156-24.564a60.4726,60.4726,0,0,1,19.38-16.5962,110.2259,110.2259,0,0,1,26.76-10.2812,261.651,261.651,0,0,1,29.6206-5.6026c9.7773-1.26,19.2143-2.0771,28.0483-2.43,8.8848-.35,16.3106-.5278,22.0713-.5278h.5v1.269l-.3252.1211a170.0627,170.0627,0,0,0-27.7256,12.9371,102.2161,102.2161,0,0,0-33.7959,32.0249,232.775,232.775,0,0,0-11.9756,20.4228c-5.0527,9.6978-10.2729,19.6377-15.5151,29.542a201.3574,201.3574,0,0,1-16.3364,26.124,80.5058,80.5058,0,0,1-19.1475,18.6831,42.3045,42.3045,0,0,1-24.186,7.1543c-6.5962,0-11.89-1.6-15.7339-4.7563-3.876-3.1748-5.8418-8.2744-5.8418-15.1558v-.396l.3857-.0908c2.8643-.6724,4.8721-1.7134,5.9673-3.0942,1.0933-1.3789,1.648-3.44,1.648-6.125a9.9357,9.9357,0,0,0-2.5928-7.1441A9.11,9.11,0,0,0,56.2617,286.0752Z"/><path class="cls-6" d="M183.3,254.9805l1.3666-3.7989h15.0264l14.6353-26.5859,21.076-.8437-16.1969,27.43h24.7836l-1.7567,3.7989H217.0608Q208.279,270.5971,202.23,281.25q-6.0506,10.6567-9.66,17.7236-3.6132,7.0723-5.2692,11.2881a20.6479,20.6479,0,0,0-1.6583,7.3858,6.8185,6.8185,0,0,0,1.3656,4.4306,4.7208,4.7208,0,0,0,3.9036,1.6875q4.8746,0,12.88-5.38A109.9054,109.9054,0,0,0,220.9635,303.51q6.2442-6.75,13.6608-15.8243,7.4133-9.07,13.8558-18.3574l1.1706,1.0547q-4.4912,6.3311-11.3188,15.4033a231.6575,231.6575,0,0,1-15.0264,17.9346q-4.4912,4.8574-9.2695,9.1787a84.9444,84.9444,0,0,1-9.66,7.5957,52.9753,52.9753,0,0,1-9.5621,5.17,24.3166,24.3166,0,0,1-9.1719,1.8995,19.545,19.545,0,0,1-10.9286-3.06q-4.6836-3.0572-4.6831-10.6563a32.476,32.476,0,0,1,2.146-11.2881,98.1845,98.1845,0,0,1,5.9521-12.7656q3.8055-6.9624,8.8792-15.4023,5.0724-8.4375,10.9287-19.4121Z"/><path class="cls-6" d="M185.6421,328.0645a20.1264,20.1264,0,0,1-11.2017-3.1407c-3.2578-2.1264-4.91-5.853-4.91-11.0752a33.1322,33.1322,0,0,1,2.1767-11.4614,99.16,99.16,0,0,1,5.982-12.832c2.5444-4.6548,5.5356-9.8433,8.89-15.42,3.2534-5.4107,6.792-11.6836,10.5234-18.6543H182.5889l1.7265-4.7989h15.0825l14.629-26.5742,22.2753-.8916-16.2187,27.4658h24.69l-2.2192,4.7989H217.353q-8.6888,15.45-14.6884,26.0161c-4.0084,7.06-7.2549,13.0161-9.65,17.7046-2.39,4.6772-4.1557,8.46-5.249,11.2431a20.2729,20.2729,0,0,0-1.624,7.2032,6.3675,6.3675,0,0,0,1.2539,4.1157,4.2141,4.2141,0,0,0,3.5156,1.5024c3.1343,0,7.374-1.7812,12.6006-5.2949a109.926,109.926,0,0,0,17.0918-14.8086c4.1162-4.4492,8.7056-9.7656,13.6328-15.793,4.9209-6.0205,9.5747-12.186,13.8325-18.3261l.3233-.4663,1.9238,1.7324-.2578.3628c-3.0147,4.25-6.8257,9.436-11.3272,15.415A233.2622,233.2622,0,0,1,223.6729,304.06c-2.9952,3.24-6.1246,6.3383-9.3013,9.21a85.9312,85.9312,0,0,1-9.7168,7.64,53.77,53.77,0,0,1-9.6524,5.2178A24.9271,24.9271,0,0,1,185.6421,328.0645Zm-1.63-73.584H198.77l-.3926.7353c-3.8842,7.2808-7.5654,13.8194-10.9409,19.4346-3.3476,5.5654-6.3315,10.7417-8.8691,15.3843a98.0366,98.0366,0,0,0-5.9219,12.7,32.13,32.13,0,0,0-2.1147,11.1142c0,4.8633,1.5,8.3076,4.4565,10.2373a19.1391,19.1391,0,0,0,10.6548,2.9786,23.9368,23.9368,0,0,0,8.9844-1.8628,52.7627,52.7627,0,0,0,9.4716-5.1216,84.9794,84.9794,0,0,0,9.6026-7.5513c3.1548-2.8525,6.2627-5.93,9.2378-9.1475a232.2876,232.2876,0,0,0,14.9941-17.8959c4.3687-5.8023,8.085-10.856,11.0528-15.0289l-.4185-.3774c-4.1846,6.0073-8.7432,12.0347-13.5557,17.9229-4.94,6.0434-9.5434,11.375-13.6806,15.8471a110.9831,110.9831,0,0,1-17.26,14.9517c-5.395,3.626-9.8218,5.4648-13.1587,5.4648a5.2162,5.2162,0,0,1-4.2929-1.874,7.33,7.33,0,0,1-1.4766-4.7441,21.2429,21.2429,0,0,1,1.6933-7.5689c1.105-2.813,2.8848-6.626,5.2891-11.3325,2.4014-4.7012,5.6548-10.6709,9.67-17.7432q6.0454-10.6515,14.83-26.2675l.1436-.2549h25.1465l1.2944-2.7989H218.3315l16.1758-27.3935-19.8769.7959-14.6416,26.5976h-14.97Z"/><path class="cls-6" d="M304.8773,252.4482l20.2956-1.2666a90.8858,90.8858,0,0,1-5.0741,9.1788q-3.3205,5.38-7.22,11.6054-3.9058,6.2256-7.9039,12.8711-4.002,6.6461-7.3176,12.8711a102.1788,102.1788,0,0,0-5.3668,11.6045,26.6426,26.6426,0,0,0-2.0493,9.1787q0,5.2764,4.879,5.2744,4.6836,0,12.6845-5.9072a116.4159,116.4159,0,0,0,16.7831-15.6143q3.704-4.0063,7.5127-8.6513,3.8057-4.6377,7.3186-9.1778,3.5117-4.5351,6.44-8.44,2.9264-3.9024,4.683-6.4355l1.3666.8437q-5.0778,7.3887-11.709,16.3526a229.5932,229.5932,0,0,1-16.0019,19.0957,120.3475,120.3475,0,0,1-18.4414,16.5634q-9.0744,6.4337-18.0512,6.4356-6.2483,0-9.6605-3.4815a11.7351,11.7351,0,0,1-3.415-8.5459,24.0782,24.0782,0,0,1,.1951-3.165,8.1232,8.1232,0,0,1,.5861-2.32h-.391a62.0279,62.0279,0,0,1-13.66,12.4482,29.03,29.03,0,0,1-16.3921,5.0645,15.8509,15.8509,0,0,1-8.0014-1.8994,15.0617,15.0617,0,0,1-5.3667-5.169,24.3831,24.3831,0,0,1-3.0248-7.3847,36.9762,36.9762,0,0,1-.9755-8.5459,45.1864,45.1864,0,0,1,5.2693-20.6778,77.893,77.893,0,0,1,13.27-18.6738,69.2984,69.2984,0,0,1,17.8561-13.5039q9.852-5.1679,18.8316-5.17,6.828,0,10.7335,3.165,3.9,3.1656,6.44,9.917Zm-58.544,54.0157a27.99,27.99,0,0,0,1.8542,10.6552q1.8521,4.5411,7.9029,4.5371,4.0983-.2079,8.5867-3.6923a51.8741,51.8741,0,0,0,8.6842-8.7569,102.7921,102.7921,0,0,0,8.0014-11.71,116.205,116.205,0,0,0,6.6348-12.9766,101.8807,101.8807,0,0,0,4.488-12.3437,36.8963,36.8963,0,0,0,1.6592-9.8116q0-5.6967-1.9518-8.8623-1.9523-3.164-7.61-3.165a16.69,16.69,0,0,0-9.0744,2.9541,41.2986,41.2986,0,0,0-8.7818,7.8066,90.9665,90.9665,0,0,0-8.0013,10.8672,91.4,91.4,0,0,0-10.83,24.4756A39.378,39.378,0,0,0,246.3333,306.4639Z"/><path class="cls-6" d="M287.7051,329.33c-4.2857,0-7.6563-1.2217-10.0176-3.6314a12.2712,12.2712,0,0,1-3.5581-8.896,24.6769,24.6769,0,0,1,.2-3.2309q.0557-.4278.1274-.8037a62.5306,62.5306,0,0,1-12.82,11.414,29.6517,29.6517,0,0,1-16.6689,5.148,16.4109,16.4109,0,0,1-8.25-1.9654,15.6329,15.6329,0,0,1-5.542-5.3378,24.9767,24.9767,0,0,1-3.0874-7.5347,37.6162,37.6162,0,0,1-.9893-8.6611,45.8833,45.8833,0,0,1,5.3242-20.9048,78.7593,78.7593,0,0,1,13.354-18.793,70.13,70.13,0,0,1,17.9844-13.6006c6.6128-3.4682,13.0269-5.227,19.064-5.227,4.6465,0,8.3638,1.1025,11.0483,3.2763a22.4473,22.4473,0,0,1,6.2119,9.1558l4.4927-7.772,21.4-1.3354-.3525.7612a91.6884,91.6884,0,0,1-5.1021,9.231q-3.3215,5.3825-7.2222,11.6088c-2.6088,4.1587-5.2666,8.4864-7.8994,12.8633-2.6416,4.3872-5.0991,8.71-7.3042,12.8487a102.0365,102.0365,0,0,0-5.3408,11.5468,26.2951,26.2951,0,0,0-2.0166,9.001c0,3.2573,1.3916,4.7744,4.3789,4.7744,2.9981,0,7.1655-1.9546,12.3877-5.81a116.474,116.474,0,0,0,16.71-15.5474c2.4658-2.6675,4.9868-5.5708,7.4966-8.6328,2.518-3.0689,4.977-6.1529,7.3095-9.167,2.3467-3.03,4.5118-5.8677,6.4356-8.4341,1.9414-2.5894,3.5132-4.75,4.6723-6.4209l.27-.3892,2.2163,1.3687-.2974.4326c-3.375,4.9107-7.3179,10.4175-11.7192,16.3667A231.1692,231.1692,0,0,1,324.5645,306.17a121.4053,121.4053,0,0,1-18.5191,16.6318C299.936,327.1338,293.7651,329.33,287.7051,329.33Zm-12.9224-18.5127h1.4126l-.3315.7114a7.6756,7.6756,0,0,0-.5435,2.1733,23.722,23.722,0,0,0-.1909,3.1006,11.3034,11.3034,0,0,0,3.272,8.1958c2.1665,2.2105,5.2968,3.3316,9.3037,3.3316,5.8491,0,11.8247-2.1343,17.7622-6.3433A120.4053,120.4053,0,0,0,323.83,305.4917a230.2312,230.2312,0,0,0,15.9673-19.0537c4.2656-5.7661,8.0991-11.1143,11.4008-15.9058l-.5166-.3193c-1.1352,1.6225-2.6211,3.6592-4.4228,6.0615-1.9268,2.5708-4.0947,5.4126-6.4443,8.4468-2.3384,3.0215-4.8038,6.1133-7.3272,9.189s-5.0561,5.9951-7.5322,8.6733a117.4,117.4,0,0,1-16.8535,15.6772c-5.4737,4.0406-9.72,6.0049-12.9815,6.0049-3.519,0-5.3789-1.9966-5.3789-5.7744a27.2508,27.2508,0,0,1,2.082-9.3564,103.0945,103.0945,0,0,1,5.3926-11.6621c2.2134-4.1534,4.68-8.4917,7.3306-12.8936,2.6357-4.3823,5.2964-8.7153,7.9092-12.8789q3.9-6.22,7.2177-11.6025c1.9732-3.2,3.5464-6.0093,4.6851-8.3643l-19.1821,1.1973-5.2735,9.122-.3716-.9892c-1.6533-4.3955-3.7685-7.6607-6.2866-9.7046-2.5019-2.0259-6.0073-3.0532-10.4189-3.0532-5.874,0-12.1314,1.72-18.5991,5.1128a69.1151,69.1151,0,0,0-17.7276,13.4072A77.7462,77.7462,0,0,0,233.314,285.38a44.8934,44.8934,0,0,0-5.2149,20.4507,36.6636,36.6636,0,0,0,.9619,8.4306,24.0034,24.0034,0,0,0,2.9624,7.2344,14.6383,14.6383,0,0,0,5.191,5,15.431,15.431,0,0,0,7.7534,1.8335A28.6722,28.6722,0,0,0,261.083,323.35a61.8516,61.8516,0,0,0,13.55-12.3491Zm-18.6694,11.3384c-4.2632,0-7.0767-1.6314-8.3887-4.8477a28.6171,28.6171,0,0,1-1.8911-10.8442,40.0494,40.0494,0,0,1,1.5786-10.1529,91.9229,91.9229,0,0,1,10.8906-24.6128,91.9318,91.9318,0,0,1,8.0454-10.9267,42.004,42.004,0,0,1,8.8892-7.9,17.2535,17.2535,0,0,1,9.3452-3.0337c3.94,0,6.6431,1.145,8.0357,3.4023,1.3447,2.1846,2.0263,5.2549,2.0263,9.125a37.5427,37.5427,0,0,1-1.6782,9.9488,102.8817,102.8817,0,0,1-4.51,12.4048,117.241,117.241,0,0,1-6.6635,13.0327,103.7638,103.7638,0,0,1-8.0406,11.7671,52.6338,52.6338,0,0,1-8.7685,8.84c-3.0664,2.3765-6.05,3.6538-8.8682,3.7969Zm28.4692-71.3179a16.2758,16.2758,0,0,0-8.8032,2.8745,40.9646,40.9646,0,0,0-8.6743,7.7134,90.8682,90.8682,0,0,0-7.9575,10.8076,90.8868,90.8868,0,0,0-10.77,24.3379,39.0575,39.0575,0,0,0-1.5444,9.8926A27.6349,27.6349,0,0,0,248.65,316.93c1.16,2.8442,3.5937,4.2265,7.44,4.2265,2.5845-.1318,5.3789-1.3388,8.2808-3.5874a51.6376,51.6376,0,0,0,8.5991-8.6733,102.7654,102.7654,0,0,0,7.9619-11.6528,116.161,116.161,0,0,0,6.6065-12.9209,101.7664,101.7664,0,0,0,4.4658-12.2822,36.58,36.58,0,0,0,1.64-9.6744c0-3.6826-.6318-6.5761-1.8774-8.6C290.5688,251.8228,288.1519,250.8379,284.5825,250.8379Z"/><path class="cls-6" d="M418.2578,177.9648,357.957,281.7773q-7.61,13.2921-12.0991,22.0489-4.4911,8.7582-4.488,14.2431,0,5.6969,4.2929,5.6963,4.0981,0,11.1237-4.8525a93.5042,93.5042,0,0,0,15.0264-13.5039q7.4135-8.017,14.6363-17.0908,7.2169-9.07,14.05-18.7793l1.7567.6328q-2.3424,3.3779-5.3667,7.5967-3.0281,4.2231-6.3423,8.5449-3.3206,4.327-6.7324,8.6513-3.4167,4.3272-6.7324,7.9122-11.3205,12.4525-20.003,18.5683a30.93,30.93,0,0,1-18.0512,6.1192q-13.2729,0-13.27-12.66,0-5.9047,4-14.876,3.998-8.9647,12.3918-24.1592l54.4462-96.6377Z"/><path class="cls-6" d="M339.0278,328.0645c-9.1367,0-13.7695-4.4278-13.7695-13.16,0-3.9834,1.36-9.0566,4.0435-15.08,2.66-5.9639,6.8354-14.105,12.4111-24.1973l54.582-96.8794,22.8628-1.3364-.4678.8042L358.3892,282.0283c-5.045,8.813-9.1123,16.2241-12.0865,22.0259-2.9414,5.7358-4.4326,10.4512-4.4326,14.0151,0,3.4966,1.2407,5.1963,3.7925,5.1963,2.6191,0,6.2661-1.603,10.84-4.7636A93.5,93.5,0,0,0,371.4458,305.07c4.916-5.3159,9.832-11.0566,14.6123-17.063,4.7832-6.0122,9.5044-12.3222,14.0322-18.7553l.2193-.312,2.728.9824-.3706.5351c-1.5513,2.2364-3.3584,4.7945-5.3716,7.6031-2.0342,2.8369-4.1714,5.7163-6.352,8.5576-2.232,2.9087-4.4981,5.8208-6.7364,8.6567-2.2773,2.8838-4.5508,5.5562-6.7578,7.9419-7.5293,8.2827-14.2871,14.5542-20.082,18.6377A31.56,31.56,0,0,1,339.0278,328.0645Zm57.8706-148.35-54.3125,96.4c-5.5595,10.0635-9.7226,18.1792-12.3711,24.1172-2.6254,5.8936-3.9565,10.83-3.9565,14.6724,0,8.1826,4.1768,12.16,12.7695,12.16a30.5833,30.5833,0,0,0,17.7632-6.0279c5.7354-4.0415,12.438-10.2641,19.9209-18.4961,2.1929-2.37,4.4492-5.0224,6.71-7.8857,2.2353-2.832,4.499-5.7412,6.7285-8.6455,2.1738-2.833,4.3047-5.7036,6.3325-8.5322,1.8516-2.5826,3.5278-4.9532,4.9907-7.0557l-.7856-.2827c-4.4717,6.3413-9.1289,12.5605-13.8477,18.4912-4.7954,6.0249-9.7275,11.7847-14.66,17.1186a94.4735,94.4735,0,0,1-15.1094,13.5762c-4.8105,3.3247-8.5425,4.9409-11.4082,4.9409-2.1865,0-4.7925-1.0752-4.7925-6.1963,0-3.7241,1.5283-8.5927,4.543-14.4712,2.9809-5.8154,7.0557-13.2407,12.11-22.0693l59.835-103.0107Z"/><path class="cls-6" d="M427.2328,251.1816Q418.0569,266.8,411.4251,277.874q-6.6357,11.0772-10.83,18.8838-4.1985,7.8092-6.2447,12.7656a22.4615,22.4615,0,0,0-2.0494,8.1241,8.4434,8.4434,0,0,0,.8779,4.1142,2.8382,2.8382,0,0,0,2.6347,1.5821q3.9018,0,11.0261-4.8526,7.1208-4.8516,17.8562-16.6689,4.2892-4.8516,8.3906-9.6006,4.0983-4.7476,7.7088-9.1787t6.44-8.0176q2.8262-3.5859,4.5864-5.6973l1.7558,1.2657q-2.341,3.3779-5.7569,7.7021-3.4168,4.3272-7.3177,9.0723-3.9059,4.7475-8.0014,9.39-4.0981,4.6436-8,8.8623-11.3206,12.24-19.4178,17.0908-8.1,4.8516-14.9288,4.8536-6.4394,0-9.9523-3.7989a14.0189,14.0189,0,0,1-3.5125-9.917,28.4933,28.4933,0,0,1,1.4631-8.7558,76.85,76.85,0,0,1,4.9766-11.2891q3.513-6.75,9.367-16.7744,5.8541-10.018,14.6363-24.792ZM438.5507,204.34a8.8108,8.8108,0,0,1,6.5373,2.9541,9.7483,9.7483,0,0,1,2.83,6.9629,11.2821,11.2821,0,0,1-3.1223,7.7022,9.2813,9.2813,0,0,1-7.025,3.4814,11.7112,11.7112,0,0,1-7.4152-2.4267q-3.1242-2.4229-3.1224-7.2793a10.7935,10.7935,0,0,1,3.415-8.124A11.0821,11.0821,0,0,1,438.5507,204.34Z"/><path class="cls-6" d="M390.1538,328.0645c-4.417,0-7.8892-1.3321-10.3193-3.9595a14.5676,14.5676,0,0,1-3.645-10.2564,29.1266,29.1266,0,0,1,1.4868-8.9091,77.8029,77.8029,0,0,1,5.0088-11.3663c2.34-4.4946,5.4951-10.1455,9.3794-16.7959,3.9311-6.728,8.8564-15.07,14.6381-24.7954l.1368-.23,21.2954-1.1182-.4707.8013c-6.0318,10.2666-11.3511,19.248-15.81,26.6958-4.3892,7.3266-8.0293,13.6733-10.8193,18.8637-2.7706,5.1529-4.8643,9.4326-6.2232,12.72a22.1168,22.1168,0,0,0-2.0112,7.9331,8.0051,8.0051,0,0,0,.8149,3.8715,2.3531,2.3531,0,0,0,2.1978,1.3248c2.4887,0,6.104-1.6036,10.7446-4.7657,4.6948-3.1987,10.6724-8.7807,17.7676-16.5918,2.9272-3.3115,5.749-6.54,8.3823-9.5913,2.687-3.1128,5.2774-6.1972,7.6992-9.1679,2.4717-3.0342,4.5767-5.6548,6.4351-8.0113,1.833-2.3262,3.3789-4.2461,4.5947-5.7075l.2984-.3584,2.5322,1.8252-.2793.4033c-1.5474,2.2329-3.49,4.8325-5.7754,7.7271-2.2446,2.8427-4.709,5.8979-7.3242,9.08-2.6587,3.232-5.355,6.3956-8.0132,9.4034-2.6978,3.0571-5.3921,6.0415-8.0078,8.8706-7.542,8.1548-14.1118,13.935-19.5279,17.18C399.8838,326.4077,394.7744,328.0645,390.1538,328.0645Zm17.2715-75.3418c-5.7212,9.625-10.5982,17.8862-14.4976,24.559-3.8759,6.6363-7.0234,12.273-9.3554,16.753a76.8194,76.8194,0,0,0-4.9444,11.2119,28.1244,28.1244,0,0,0-1.4384,8.602,13.6014,13.6014,0,0,0,3.3793,9.5777c2.233,2.414,5.4581,3.6382,9.585,3.6382,4.437,0,9.3735-1.6089,14.6724-4.7828,5.334-3.1963,11.83-8.9165,19.3071-17.0009,2.6108-2.8238,5.3-5.8023,7.9927-8.854,2.6509-2.9991,5.3388-6.1539,7.99-9.3765,2.6113-3.1768,5.0713-6.2266,7.3115-9.0645,2.1363-2.7055,3.97-5.15,5.458-7.2744l-.9775-.7046c-1.1616,1.4053-2.6,3.1953-4.2808,5.3282-1.8618,2.3608-3.97,4.9853-6.4448,8.0239-2.4282,2.978-5.0249,6.07-7.7178,9.1894-2.6357,3.0542-5.46,6.2857-8.3945,9.605-7.1523,7.874-13.1894,13.5083-17.9487,16.751-4.8779,3.3237-8.5767,4.94-11.3081,4.94a3.32,3.32,0,0,1-3.0718-1.8389,8.9667,8.9667,0,0,1-.9409-4.3574,23.0388,23.0388,0,0,1,2.0874-8.315c1.3716-3.3183,3.48-7.6289,6.2661-12.8115,2.7974-5.2041,6.4453-11.5645,10.8423-18.9038,4.3408-7.2505,9.498-15.957,15.3345-25.8877ZM437.7705,225.94a12.2505,12.2505,0,0,1-7.7226-2.5322c-2.1993-1.7061-3.315-4.2881-3.315-7.6738a11.3238,11.3238,0,0,1,3.5693-8.4849,11.61,11.61,0,0,1,8.2486-3.41,9.3284,9.3284,0,0,1,6.8979,3.108,10.2747,10.2747,0,0,1,2.9693,7.309,11.8215,11.8215,0,0,1-3.25,8.0357A9.8,9.8,0,0,1,437.7705,225.94Zm.78-21.1006a10.6452,10.6452,0,0,0-7.5571,3.1314,10.3614,10.3614,0,0,0-3.2608,7.7632c0,3.104.958,5.3559,2.9287,6.8843a11.273,11.273,0,0,0,7.1089,2.3217,8.8425,8.8425,0,0,0,6.6528-3.3154,10.85,10.85,0,0,0,2.9947-7.3682,9.3047,9.3047,0,0,0-2.6914-6.6172A8.3623,8.3623,0,0,0,438.5508,204.84Z"/><path class="cls-6" d="M507.24,252.4482l20.2957-1.2666a90.8893,90.8893,0,0,1-5.0742,9.1788q-3.3206,5.38-7.22,11.6054-3.9059,6.2256-7.9038,12.8711-4.002,6.6461-7.3177,12.8711a102.1962,102.1962,0,0,0-5.3668,11.6045,26.6426,26.6426,0,0,0-2.0493,9.1787q0,5.2764,4.8791,5.2744,4.6834,0,12.6844-5.9072a116.4159,116.4159,0,0,0,16.7831-15.6143q3.7039-4.0063,7.5128-8.6513,3.8055-4.6377,7.3185-9.1778,3.5117-4.5351,6.44-8.44,2.9263-3.9024,4.6831-6.4355l1.3665.8437q-5.0778,7.3887-11.709,16.3526a229.5736,229.5736,0,0,1-16.0019,19.0957,120.3428,120.3428,0,0,1-18.4414,16.5634q-9.0743,6.4337-18.0512,6.4356-6.2482,0-9.6605-3.4815a11.7351,11.7351,0,0,1-3.415-8.5459,24.0782,24.0782,0,0,1,.1951-3.165,8.1262,8.1262,0,0,1,.5862-2.32h-.3911a62.0279,62.0279,0,0,1-13.66,12.4482,29.03,29.03,0,0,1-16.392,5.0645,15.85,15.85,0,0,1-8.0014-1.8994,15.0619,15.0619,0,0,1-5.3668-5.169,24.3857,24.3857,0,0,1-3.0248-7.3847,36.9762,36.9762,0,0,1-.9754-8.5459,45.1875,45.1875,0,0,1,5.2692-20.6778,77.893,77.893,0,0,1,13.27-18.6738,69.3,69.3,0,0,1,17.8561-13.5039q9.852-5.1679,18.8316-5.17,6.8281,0,10.7335,3.165,3.9,3.1656,6.44,9.917Zm-58.544,54.0157a27.992,27.992,0,0,0,1.8542,10.6552q1.852,4.5411,7.903,4.5371,4.0981-.2079,8.5866-3.6923a51.8741,51.8741,0,0,0,8.6842-8.7569,102.7792,102.7792,0,0,0,8.0014-11.71,116.206,116.206,0,0,0,6.6349-12.9766,101.8962,101.8962,0,0,0,4.4879-12.3437,36.8963,36.8963,0,0,0,1.6592-9.8116q0-5.6967-1.9518-8.8623-1.9523-3.164-7.61-3.165a16.69,16.69,0,0,0-9.0744,2.9541,41.2982,41.2982,0,0,0-8.7817,7.8066,90.9778,90.9778,0,0,0-8.0014,10.8672,91.4,91.4,0,0,0-10.83,24.4756A39.378,39.378,0,0,0,448.6963,306.4639Z"/><path class="cls-6" d="M490.0679,329.33c-4.2852,0-7.6558-1.2217-10.0176-3.6314a12.2712,12.2712,0,0,1-3.5581-8.896,24.7582,24.7582,0,0,1,.2-3.2309q.0557-.4278.1274-.8032A62.5029,62.5029,0,0,1,464,324.1821a29.6517,29.6517,0,0,1-16.6689,5.148,16.4135,16.4135,0,0,1-8.25-1.9654,15.6411,15.6411,0,0,1-5.542-5.3378,24.9767,24.9767,0,0,1-3.0874-7.5347,37.6315,37.6315,0,0,1-.9888-8.6611,45.8841,45.8841,0,0,1,5.3237-20.9048,78.7727,78.7727,0,0,1,13.354-18.793,70.1353,70.1353,0,0,1,17.9849-13.6006c6.6123-3.4682,13.0264-5.227,19.064-5.227,4.646,0,8.3632,1.1025,11.0478,3.2763a22.448,22.448,0,0,1,6.2124,9.1558l4.4922-7.772,21.4009-1.3354-.3526.7612a91.6973,91.6973,0,0,1-5.102,9.231q-3.3222,5.3825-7.2222,11.6088c-2.6015,4.146-5.2593,8.4737-7.8994,12.8633-2.64,4.3853-5.0981,8.708-7.3047,12.8487a102.1764,102.1764,0,0,0-5.3408,11.5473,26.29,26.29,0,0,0-2.0166,9c0,3.2573,1.3916,4.7744,4.3789,4.7744,2.9985,0,7.166-1.9546,12.3877-5.81A116.47,116.47,0,0,0,526.58,301.9087c2.4658-2.6675,4.9868-5.5708,7.4966-8.6328,2.5151-3.065,4.9746-6.1494,7.31-9.167,2.3662-3.0562,4.5313-5.8936,6.4351-8.4341,1.9419-2.5894,3.5136-4.75,4.6719-6.42l.27-.39,2.2168,1.3687-.2974.4326c-3.3687,4.9014-7.3115,10.4082-11.7192,16.3667A231.1847,231.1847,0,0,1,526.9277,306.17a121.349,121.349,0,0,1-18.5195,16.6318C502.2988,327.1338,496.1279,329.33,490.0679,329.33ZM477.146,310.8174h1.4121l-.3315.7114a7.7,7.7,0,0,0-.5435,2.1738,23.7844,23.7844,0,0,0-.1909,3.1,11.3034,11.3034,0,0,0,3.272,8.1958c2.167,2.2105,5.2973,3.3316,9.3037,3.3316,5.8491,0,11.8247-2.1343,17.7622-6.3433a120.4308,120.4308,0,0,0,18.3633-16.4951,230.2251,230.2251,0,0,0,15.9672-19.0537c4.2715-5.7749,8.105-11.1231,11.4009-15.9058l-.5166-.3193c-1.1352,1.6225-2.6211,3.6592-4.4233,6.0615-1.9068,2.5444-4.0747,5.3867-6.4439,8.4468-2.3413,3.0249-4.8066,6.1167-7.3276,9.189-2.522,3.0771-5.0562,5.9951-7.5322,8.6733a117.3968,117.3968,0,0,1-16.8535,15.6772c-5.4732,4.0406-9.7193,6.0049-12.9815,6.0049-3.519,0-5.3789-1.9966-5.3789-5.7744a27.2508,27.2508,0,0,1,2.082-9.3564,103.27,103.27,0,0,1,5.3926-11.6621c2.2153-4.1558,4.6817-8.4942,7.3311-12.8936,2.643-4.3945,5.3042-8.728,7.9087-12.8789q3.9-6.22,7.2182-11.6025c1.9741-3.2027,3.5474-6.0118,4.6851-8.3643l-19.1826,1.1973-5.2725,9.122-.3721-.9887c-1.6543-4.3965-3.7695-7.6617-6.2871-9.7051-2.5019-2.0259-6.0073-3.0532-10.4184-3.0532-5.8745,0-12.1319,1.72-18.5992,5.1128a69.1129,69.1129,0,0,0-17.728,13.4072,77.7617,77.7617,0,0,0-13.185,18.5547,44.9,44.9,0,0,0-5.2144,20.4507,36.6665,36.6665,0,0,0,.9614,8.4306,24.0034,24.0034,0,0,0,2.9624,7.2344,14.647,14.647,0,0,0,5.1909,5,15.4343,15.4343,0,0,0,7.7535,1.8335,28.6722,28.6722,0,0,0,16.1152-4.9805,61.8313,61.8313,0,0,0,13.55-12.3491Zm-18.6694,11.3384c-4.2637,0-7.0772-1.6314-8.3887-4.8477a28.6241,28.6241,0,0,1-1.8916-10.8442,40.0672,40.0672,0,0,1,1.5786-10.1524,91.9165,91.9165,0,0,1,10.8906-24.6133,91.9933,91.9933,0,0,1,8.0454-10.9267,42.004,42.004,0,0,1,8.8892-7.9,17.2538,17.2538,0,0,1,9.3457-3.0337c3.939,0,6.6426,1.145,8.0356,3.4023,1.3448,2.1856,2.0264,5.2554,2.0264,9.125a37.5643,37.5643,0,0,1-1.6782,9.9488,102.8588,102.8588,0,0,1-4.51,12.4048,117.0976,117.0976,0,0,1-6.6635,13.0327,103.7638,103.7638,0,0,1-8.0406,11.7671,52.5961,52.5961,0,0,1-8.7685,8.84c-3.0664,2.3765-6.05,3.6538-8.8677,3.7969Zm28.4692-71.3179a16.2771,16.2771,0,0,0-8.8037,2.8745,40.9768,40.9768,0,0,0-8.6743,7.7134,90.9287,90.9287,0,0,0-7.9575,10.8076,90.8868,90.8868,0,0,0-10.77,24.3379,39.0829,39.0829,0,0,0-1.5444,9.8926,27.63,27.63,0,0,0,1.8174,10.4658c1.16,2.8442,3.5932,4.2265,7.44,4.2265,2.5845-.1318,5.3784-1.3388,8.28-3.5874a51.6225,51.6225,0,0,0,8.5991-8.6733,102.7673,102.7673,0,0,0,7.9624-11.6528,116.26,116.26,0,0,0,6.606-12.9209,101.7887,101.7887,0,0,0,4.4663-12.2822,36.5986,36.5986,0,0,0,1.64-9.6744c0-3.6821-.6318-6.5756-1.8779-8.6C492.9316,251.8228,490.5146,250.8379,486.9458,250.8379Z"/><path class="cls-6" d="M553.88,289.1621q2.7312-3.7983,7.9039-10.7607a131.1135,131.1135,0,0,1,11.8065-13.7149A89.2859,89.2859,0,0,1,587.8358,252.87q7.6113-5.064,15.2215-5.0644,6.4407,0,9.7581,3.9043a14.326,14.326,0,0,1,3.3175,9.6,29.9013,29.9013,0,0,1-4.1963,14.6641q-4.1985,7.4926-9.2694,14.9815-5.0764,7.4912-9.2695,14.3476-4.1985,6.8585-4.1953,12.7656a6.7463,6.7463,0,0,0,1.17,4.1143,4.5371,4.5371,0,0,0,3.9036,1.582q2.73,0,9.0744-4.5361,6.339-4.5351,17.0748-16.7744,8.3889-9.7032,15.4166-18.8848,7.026-9.1787,10.5385-13.82l1.9509,1.0547q-5.0764,6.5434-12.4894,16.2471-7.4187,9.7074-15.8067,19.2011-10.1489,11.6074-17.2709,16.458a25.8435,25.8435,0,0,1-14.7338,4.8536q-7.4173,0-10.9277-4.4317a15.855,15.855,0,0,1-3.5125-10.1279,30.4637,30.4637,0,0,1,4.1953-14.7695,167.8146,167.8146,0,0,1,9.27-14.876q5.0722-7.2789,9.2694-13.82,4.1945-6.5376,4.1963-11.3936a5.388,5.388,0,0,0-1.3665-3.7988,5.3255,5.3255,0,0,0-4.0978-1.4766q-3.9059,0-9.172,3.9033a85.6868,85.6868,0,0,0-11.1237,10.128,181.7717,181.7717,0,0,0-11.9041,14.1377q-6.05,7.9116-11.4163,15.8242-5.3691,7.9131-9.66,15.2978-4.2947,7.3887-6.83,12.66l-19.7095.6328q10.3452-18.5655,20.7825-36.8193,10.4373-18.249,20.5883-37.4532l22.2465-.8437L553.49,288.74Z"/><path class="cls-6" d="M588.0308,328.0645c-5.08,0-8.8882-1.5547-11.3194-4.6211a16.4148,16.4148,0,0,1-3.6206-10.4385,31.0828,31.0828,0,0,1,4.2578-15.0112,169.0985,169.0985,0,0,1,9.2969-14.9205c3.354-4.8134,6.4692-9.458,9.2583-13.8042,2.7319-4.2578,4.1172-8,4.1172-11.1235a4.435,4.435,0,0,0-4.9644-4.7754c-2.478,0-5.4638,1.28-8.8745,3.8052a85.6477,85.6477,0,0,0-11.0566,10.0688,182.0689,182.0689,0,0,0-11.8711,14.0987c-4,5.2295-7.835,10.5459-11.4,15.8012-3.55,5.232-6.7935,10.3687-9.6411,15.2686-2.8506,4.9043-5.1426,9.1519-6.8115,12.6255l-.1314.2734-20.8955.6709.43-.7715c6.8847-12.3559,13.8779-24.7451,20.7851-36.8242,6.9375-12.13,13.8614-24.7261,20.58-37.4385l.1348-.2553,23.5073-.8916-20.8818,31.61q1.1507-1.5564,2.4521-3.3086a132.3458,132.3458,0,0,1,11.8516-13.7671,90.1338,90.1338,0,0,1,14.3247-11.8818c5.1343-3.4165,10.3486-5.1484,15.498-5.1484,4.4239,0,7.835,1.3725,10.1392,4.08a14.8834,14.8834,0,0,1,3.4365,9.9248,30.5189,30.5189,0,0,1-4.26,14.9083c-2.7984,4.9946-5.9244,10.0468-9.2915,15.0175-3.3443,4.9346-6.4585,9.7554-9.2574,14.3286-2.7348,4.4678-4.1216,8.6748-4.1216,12.5044a6.2928,6.2928,0,0,0,1.0728,3.8169,4.0443,4.0443,0,0,0,3.5015,1.3794c1.708,0,4.6631-1.4946,8.7837-4.4428,4.1792-2.99,9.895-8.6075,16.99-16.6973,5.5606-6.4317,10.7412-12.7774,15.3955-18.8589q7.0247-9.1773,10.5366-13.8184l.2593-.3422,2.8467,1.54-.3613.4658c-3.2476,4.1861-7.3321,9.4995-12.4869,16.2442-4.9267,6.4463-10.2524,12.9155-15.8295,19.2285-6.7593,7.7309-12.6021,13.2964-17.3643,16.54A26.45,26.45,0,0,1,588.0308,328.0645Zm7.0258-75.6944a5.8221,5.8221,0,0,1,4.4649,1.6362,5.8989,5.8989,0,0,1,1.5,4.1392c0,3.3179-1.4385,7.2417-4.2754,11.6636-2.7959,4.3569-5.918,9.0122-9.28,13.8359a168.32,168.32,0,0,0-9.2422,14.8321,30.106,30.106,0,0,0-4.1328,14.5278,15.4405,15.4405,0,0,0,3.4038,9.8174c2.232,2.8149,5.7769,4.2422,10.5362,4.2422a25.4781,25.4781,0,0,0,14.4526-4.7666c4.6914-3.1963,10.47-8.7051,17.1758-16.3741,5.563-6.2973,10.8735-12.748,15.7856-19.1758,4.9673-6.4985,8.9409-11.6694,12.13-15.7836l-1.0547-.57q-3.509,4.6341-10.2812,13.48c-4.6665,6.0977-9.8594,12.459-15.4351,18.9082-7.1475,8.15-12.9209,13.82-17.1621,16.854-4.354,3.1153-7.4175,4.6294-9.3657,4.6294a5.0258,5.0258,0,0,1-4.3052-1.7842,7.26,7.26,0,0,1-1.2691-4.4121c0-4.0166,1.4361-8.3994,4.2691-13.0268,2.8066-4.586,5.9292-9.42,9.2817-14.3667s6.4629-9.9761,9.2476-14.9458a29.5381,29.5381,0,0,0,4.1323-14.42,13.9069,13.9069,0,0,0-3.1987-9.2768c-2.1045-2.4736-5.26-3.728-9.377-3.728-4.9487,0-9.9765,1.6757-14.9443,4.9809a89.1221,89.1221,0,0,0-14.165,11.7505,131.326,131.326,0,0,0-11.7623,13.6621c-3.4355,4.625-6.0932,8.2432-7.8994,10.7549l-.3574.4971-1.0718-1.1592,25.0484-37.9175-20.9859.7959c-6.6811,12.6353-13.5649,25.1548-20.4609,37.2124-6.7617,11.8247-13.6055,23.9468-20.35,36.043l18.5239-.5947c1.6685-3.4449,3.9273-7.6221,6.7168-12.4214,2.8589-4.9195,6.1153-10.0762,9.6782-15.3272,3.5752-5.27,7.4214-10.6025,11.4327-15.8471a183.0276,183.0276,0,0,1,11.937-14.1763,86.6093,86.6093,0,0,1,11.19-10.1875C589.1738,253.7163,592.36,252.37,595.0566,252.37Z"/><path class="cls-6" d="M742,270.8047a51.6871,51.6871,0,0,1-9.2695,9.917,18.13,18.13,0,0,1-11.8065,4.4316,14.21,14.21,0,0,1-7.8054-2.11,22.1878,22.1878,0,0,1-6.05-5.9082,70.9157,70.9157,0,0,1-7.7087,19.9394,69.0273,69.0273,0,0,1-12.9771,16.458,60.5777,60.5777,0,0,1-16.9782,11.1836,48.0234,48.0234,0,0,1-19.5144,4.1143q-10.734,0-17.1733-6.6465t-6.44-18.252a46.1917,46.1917,0,0,1,5.2693-21.416,63.775,63.775,0,0,1,13.66-17.9345,68.8292,68.8292,0,0,1,18.54-12.2383,48.5443,48.5443,0,0,1,19.9045-4.5371q10.5377,0,16.5881,6.1191a26.3569,26.3569,0,0,1,7.4152,14.77,19.1042,19.1042,0,0,0,4.39,10.1279,11.3794,11.3794,0,0,0,8.8793,3.7979,16.7207,16.7207,0,0,0,9.9532-3.376,51.3274,51.3274,0,0,0,9.9523-10.1279Zm-90.7438,55.4932a16.4124,16.4124,0,0,0,9.7581-3.587,49.2448,49.2448,0,0,0,9.367-9.2841,85.3336,85.3336,0,0,0,8.2931-12.8711A141.018,141.018,0,0,0,685.31,286.208a102.6984,102.6984,0,0,0,4.39-13.7148,48.8707,48.8707,0,0,0,1.5616-10.9717q0-5.272-2.0493-8.23-2.05-2.9517-6.5373-2.9541a16.42,16.42,0,0,0-9.7572,3.5869,49.1593,49.1593,0,0,0-9.3679,9.2842,85.38,85.38,0,0,0-8.2931,12.8711,141.0165,141.0165,0,0,0-6.6349,14.3476,101.9492,101.9492,0,0,0-4.3913,13.7159,48.7275,48.7275,0,0,0-1.5607,10.9716q0,5.2764,2.0484,8.2286Q646.7687,326.3012,651.2562,326.2979Z"/><path class="cls-6" d="M649.8906,329.33c-7.2617,0-13.1606-2.2871-17.5322-6.7984-4.3667-4.5068-6.5811-10.7651-6.5811-18.6a46.8978,46.8978,0,0,1,5.3252-21.645,64.5582,64.5582,0,0,1,13.7662-18.0737,69.6422,69.6422,0,0,1,18.6738-12.3267,49.2638,49.2638,0,0,1,20.1084-4.5805c7.1284,0,12.8291,2.1089,16.9438,6.2675a26.9642,26.9642,0,0,1,7.5532,15.044,18.7065,18.7065,0,0,0,4.2686,9.8716,10.9464,10.9464,0,0,0,8.5073,3.6323,16.3023,16.3023,0,0,0,9.6607-3.2817,51.0746,51.0746,0,0,0,9.851-10.03l.4175-.5357,1.7578,2.5342-.2036.2866a52.4476,52.4476,0,0,1-9.3584,10.0127,18.7,18.7,0,0,1-12.125,4.5459,14.7657,14.7657,0,0,1-8.0737-2.1885,22.0963,22.0963,0,0,1-5.5356-5.1665,71.7477,71.7477,0,0,1-7.52,19.024,69.8439,69.8439,0,0,1-13.0708,16.5761,61.3786,61.3786,0,0,1-17.1176,11.2754A48.7382,48.7382,0,0,1,649.8906,329.33Zm33.76-81.0244a48.27,48.27,0,0,0-19.7,4.4936,68.6517,68.6517,0,0,0-18.4063,12.15,63.5838,63.5838,0,0,0-13.5532,17.7954,45.9108,45.9108,0,0,0-5.2139,21.187c0,7.5664,2.1192,13.59,6.2989,17.9038,4.1767,4.31,9.8335,6.4947,16.8144,6.4947a47.7376,47.7376,0,0,0,19.313-4.0723A60.38,60.38,0,0,0,686.043,313.166a68.87,68.87,0,0,0,12.8833-16.34,70.7439,70.7439,0,0,0,7.6543-19.8l.2422-1.09.6518.9068a21.8056,21.8056,0,0,0,5.9116,5.7778,13.7857,13.7857,0,0,0,7.5376,2.0327,17.7249,17.7249,0,0,0,11.4883-4.3174,51.4837,51.4837,0,0,0,8.9761-9.5361l-.584-.8418a50.8575,50.8575,0,0,1-9.6353,9.6929,17.28,17.28,0,0,1-10.2451,3.47,11.906,11.906,0,0,1-9.2509-3.9639,19.6708,19.6708,0,0,1-4.5127-10.3857,25.9836,25.9836,0,0,0-7.2769-14.4956C695.9639,250.3145,690.5024,248.3057,683.6509,248.3057Zm-32.3946,78.4922c-3.1528,0-5.4907-1.0665-6.9487-3.17-1.418-2.0439-2.1372-4.9082-2.1372-8.5132a49.4678,49.4678,0,0,1,1.5742-11.0879,103.045,103.045,0,0,1,4.4126-13.7832,142.2454,142.2454,0,0,1,6.6582-14.3984,86.3227,86.3227,0,0,1,8.3423-12.9463,49.89,49.89,0,0,1,9.4644-9.3774,16.9748,16.9748,0,0,1,10.0537-3.6841c3.15,0,5.4873,1.0664,6.9477,3.1689,1.4195,2.0489,2.1387,4.9136,2.1387,8.5147a49.5734,49.5734,0,0,1-1.5752,11.0879,103.6932,103.6932,0,0,1-4.4116,13.7822,142.1845,142.1845,0,0,1-6.66,14.3984,86.2345,86.2345,0,0,1-8.3418,12.9463,49.9774,49.9774,0,0,1-9.4634,9.3775A16.9711,16.9711,0,0,1,651.2563,326.7979Zm31.4195-75.96a16.0033,16.0033,0,0,0-9.461,3.49,48.9049,48.9049,0,0,0-9.2719,9.191,85.3368,85.3368,0,0,0-8.2437,12.7959,141.0586,141.0586,0,0,0-6.6113,14.2963,101.994,101.994,0,0,0-4.3706,13.649,48.491,48.491,0,0,0-1.5469,10.8554c0,3.397.6592,6.07,1.959,7.9434,1.2778,1.8433,3.2817,2.7393,6.1269,2.7393a16,16,0,0,0,9.4615-3.49,48.9768,48.9768,0,0,0,9.271-9.1909,85.2481,85.2481,0,0,0,8.2436-12.7959,140.9608,140.9608,0,0,0,6.6123-14.2969,102.6941,102.6941,0,0,0,4.37-13.6474,48.6331,48.6331,0,0,0,1.5478-10.8555c0-3.3941-.66-6.0669-1.96-7.9448C687.522,251.7339,685.5181,250.8379,682.6758,250.8379Z"/></svg>
